<svg xmlns="http://www.w3.org/2000/svg" viewBox="0 0 9.24 34.35"><defs><style>.cls-1,.cls-3{fill:none;stroke:#201600;stroke-miterlimit:10;}.cls-2{fill:#201600;}.cls-3{stroke-width:0.75px;}</style></defs><title>acne removal</title><g id="Слой_2" data-name="Слой 2"><g id="Слой_1-2" data-name="Слой 1"><g id="Слой_2-2" data-name="Слой 2"><g id="Слой_2-2-2" data-name="Слой 2-2"><polyline class="cls-1" points="0.5 2.75 0.5 0.5 8.74 0.5 8.74 10.16 7.06 10.16 7.06 13.8 2.27 13.8 2.27 10.16 1.47 10.16 0.5 10.16 0.5 5.08"/><line class="cls-1" x1="0.5" y1="0.71" x2="0.5" y2="8.9"/><line class="cls-1" x1="0.68" y1="5.17" x2="8.77" y2="5.17"/><line class="cls-1" x1="0.66" y1="7.53" x2="5.62" y2="7.53"/><line class="cls-1" x1="2.86" y1="2.78" x2="6.44" y2="2.76"/><line class="cls-1" x1="7.66" y1="10.16" x2="1.47" y2="10.16"/><polyline class="cls-1" points="3.37 14.31 3.37 16.19 4.57 18.29"/><polyline class="cls-1" points="6 14.31 6 16.19 4.81 18.29"/><line class="cls-1" x1="4.69" y1="18.07" x2="4.69" y2="32.03"/><circle class="cls-2" cx="4.69" cy="31.87" r="1.12"/><line class="cls-3" x1="2.86" y1="29.99" x2="4.66" y2="31.93"/><line class="cls-3" x1="4.69" y1="31.93" x2="6.49" y2="33.86"/><line class="cls-3" x1="6.49" y1="29.99" x2="4.69" y2="31.93"/><line class="cls-3" x1="4.66" y1="31.93" x2="2.86" y2="33.86"/><line class="cls-3" x1="2" y1="31.75" x2="7.31" y2="31.75"/><line class="cls-3" x1="4.69" y1="31.64" x2="4.65" y2="34.34"/></g></g></g></g></svg>