<svg xmlns="http://www.w3.org/2000/svg" viewBox="0 0 26.92 23.71"><defs><style>.cls-1{fill:#fff;}.cls-1,.cls-2,.cls-3{stroke:#201600;stroke-miterlimit:10;}.cls-1,.cls-2{stroke-linecap:round;}.cls-2,.cls-3{fill:none;}</style></defs><title>airbrush_icn1</title><g id="Слой_2" data-name="Слой 2"><g id="Слой_2-2" data-name="Слой 2"><line class="cls-1" x1="2.41" y1="10.28" x2="6.51" y2="6.17"/><polyline class="cls-2" points="3.06 19.27 0.71 21.62 2.09 23.01 4.48 20.62"/><path class="cls-2" d="M4.17,10.9l3.1-3.09L9.58,11.4,20.27.71l3,3-3,3s1.31,1.56,1.56,1.56-2.22,2.21-2.22,2.21L17.66,8.58,7.74,18.51a2.16,2.16,0,0,1-3,.6s-1.61-1.35.5-3.21l2.4-2.36Z"/><path class="cls-3" d="M20.9,9.21a4.39,4.39,0,0,0,5.77.68"/><line class="cls-3" x1="7.67" y1="13.54" x2="9.58" y2="11.4"/></g></g></svg>