<svg xmlns="http://www.w3.org/2000/svg" viewBox="0 0 42.05 22.64"><defs><style>.cls-1{fill:#201600;}.cls-2{fill:none;stroke:#201600;stroke-miterlimit:10;}</style></defs><title>bird_icn1</title><g id="Слой_2" data-name="Слой 2"><g id="Слой_2-2" data-name="Слой 2"><path class="cls-1" d="M17.07,1a.77.77,0,0,1,.44.16.7.7,0,0,1,.3,1,3.68,3.68,0,0,0-.12,1.56v.14L17.75,5l1.07-.14a4.21,4.21,0,0,0,1.09-.34l.32-.13a2,2,0,0,0,.71-.44l0,0,.23,0,.69,0,.31,0a5.8,5.8,0,0,1,.07.74c0,.2,0,.4,0,.58a10.17,10.17,0,0,1,0,1.57c0,.28-.06.57-.11.87s-.09.65-.11,1l0,.2a2.27,2.27,0,0,0,.34,1.77,2.41,2.41,0,0,0,1.74.71,1.73,1.73,0,0,0,.47-.06c3.11-.74,6.26-1.52,9.31-2.27l.57-.14a52.05,52.05,0,0,0-5.12,2.35l-2.62,1.43,2.95.44a34.26,34.26,0,0,0,5,.29h1.09L31.18,14l-2.86.44-2.06.32c-1.89.28-3.86.57-5.78,1a3.74,3.74,0,0,0-2.11,1.82A8.35,8.35,0,0,1,11,21.64a8.11,8.11,0,0,1-7-3.72A8.63,8.63,0,0,1,3.26,16l-.15-.47c0-.12-.07-.23-.1-.35a4.37,4.37,0,0,0-1.3-2.32l.18-.08a6.12,6.12,0,0,0,1.68-1,3.34,3.34,0,0,1,2.3-1,3.87,3.87,0,0,1,.48,0l.44,0A2.7,2.7,0,0,0,9,9.64c2.63-3,5.29-5.92,7.55-8.34a.82.82,0,0,1,.57-.3m0-1a1.79,1.79,0,0,0-1.3.62C13.2,3.37,10.66,6.14,8.2,9c-.45.52-.78.86-1.41.86a1.62,1.62,0,0,1-.3,0,4.4,4.4,0,0,0-.62,0,4.32,4.32,0,0,0-3,1.27A9.72,9.72,0,0,1,.78,12.2L0,12.64c.18.23.32.58.56.69,1.11.49,1.29,1.52,1.6,2.5a11.56,11.56,0,0,0,1,2.61A9.08,9.08,0,0,0,11,22.64a9.31,9.31,0,0,0,8.21-4.56,2.74,2.74,0,0,1,1.44-1.34c2.58-.52,5.19-.86,7.79-1.27,4-.62,8-1.23,12-1.88a9.42,9.42,0,0,0,1.6-.54L42,12.51a35,35,0,0,0-4.23-.2h-3A32.8,32.8,0,0,1,29.87,12c3.49-1.91,7.32-3,10.7-5l-.18-.51A8.58,8.58,0,0,0,39,6.66c-4.88,1.2-9.75,2.42-14.64,3.59a.88.88,0,0,1-.24,0,1.42,1.42,0,0,1-1-.36c-.22-.26-.12-.82-.09-1.25.05-.62.18-1.24.22-1.86a10.11,10.11,0,0,0,0-1.74c-.07-.7,0-1.69-.41-2a1.66,1.66,0,0,0-1-.24c-.39,0-.8,0-1.16.07s-.53.4-.83.51a7.54,7.54,0,0,1-1.21.42,3.82,3.82,0,0,1,0-1.27A1.68,1.68,0,0,0,18.08.34a1.8,1.8,0,0,0-1-.34Z"/><path class="cls-2" d="M6.78,10.37a9.33,9.33,0,0,1,4,3.39c1.57,2.44,3.17,2.79,4.48,2.71a2.8,2.8,0,0,0,2-1s2.82-2.26,4.79-2.71,8.57-.11,8.57-.11"/><line class="cls-2" x1="25.08" y1="10.66" x2="20.18" y2="13.53"/><path class="cls-2" d="M20.17,3.83s-7.35,5-8,5.92-1.92,2.39-1,4.62"/><polyline class="cls-1" points="17.84 2.25 15.99 4.7 18.42 4.55"/><polyline class="cls-1" points="22.49 4.9 19.89 7.28 22.34 7.95"/><polyline class="cls-1" points="22.28 8.19 20.18 10.11 23.34 11.11"/><path class="cls-1" d="M3.65,11.68s0,1.45,1,1.7,1.58-.5,1.44-.85a21,21,0,0,0-1.19-1.88Z"/><polygon class="cls-1" points="2.23 13.76 2.56 12.04 1.53 12.59 2.23 13.76"/></g></g></svg>