<svg xmlns="http://www.w3.org/2000/svg" viewBox="0 0 228.88 371.29"><defs><style>.cls-1{fill:#464340;}.cls-2{fill:#535353;}</style></defs><title>body art_icn</title><g id="Слой_2" data-name="Слой 2"><g id="Слой_4" data-name="Слой 4"><path class="cls-1" d="M127.08,371.29H25.92A26,26,0,0,1,0,345.37V209.63a26,26,0,0,1,25.92-25.92h2.31c4.08-10.91,12.59-17.53,22.9-17.53h50.74a24.41,24.41,0,0,1,23.27,17.53h1.94A26,26,0,0,1,153,209.63V345.37A26,26,0,0,1,127.08,371.29ZM25.92,193.71A15.94,15.94,0,0,0,10,209.63V345.37a15.94,15.94,0,0,0,15.92,15.92H127.08A15.94,15.94,0,0,0,143,345.37V209.63a15.94,15.94,0,0,0-15.92-15.92H116.73l-.58-4.34c-1.2-9.06-8.24-13.19-14.28-13.19H51.13c-6.77,0-12.16,5.15-14.4,13.79l-1,3.74Z"/><rect class="cls-1" x="25.83" y="183.71" width="39.52" height="10"/><path class="cls-1" d="M119.79,175.26H34.14V103h85.65Zm-75.65-10h65.65V113H44.14Z"/><rect class="cls-1" x="91.33" y="183.71" width="34.91" height="10"/><rect class="cls-1" x="91.33" y="135.28" width="10" height="25.22"/><rect class="cls-1" x="91.33" y="119.59" width="10" height="10.92"/><rect class="cls-1" x="72.67" y="135.28" width="10" height="25.22"/><rect class="cls-1" x="72.67" y="119.59" width="10" height="10.92"/><rect class="cls-1" x="53" y="134.94" width="10" height="25.22"/><rect class="cls-1" x="53" y="119.26" width="10" height="10.92"/><rect class="cls-1" x="113.48" y="235.68" width="10" height="107.01"/><rect class="cls-1" x="113.48" y="215.08" width="10" height="10.92"/><path class="cls-1" d="M77.33,87.91h-.16a5.3,5.3,0,0,1,.93-10.55,5.73,5.73,0,0,1,4.78,4.77,5,5,0,0,1-3.25,5.23A5.09,5.09,0,0,1,77.33,87.91Z"/><polygon class="cls-1" points="103.24 97 93.24 97 93.24 71 61.24 71 61.24 97 51.24 97 51.24 61 103.24 61 103.24 97"/><path class="cls-1" d="M114.24,62a5,5,0,1,1,3.53-1.47A5,5,0,0,1,114.24,62Z"/><path class="cls-1" d="M129.23,49a5,5,0,0,1,2.05-6.77h0a5,5,0,0,1,6.77,2h0A5,5,0,0,1,136,51h0a4.9,4.9,0,0,1-2.36.6h0A5,5,0,0,1,129.23,49Zm19.4-10.4a5,5,0,0,1,2.05-6.77h0a5,5,0,0,1,6.77,2h0a5,5,0,0,1-2,6.77h0a4.9,4.9,0,0,1-2.36.6h0A5,5,0,0,1,148.63,38.56ZM168,28.16a5,5,0,0,1,2.05-6.77h0a5,5,0,0,1,6.77,2h0a5,5,0,0,1-2,6.77h0a4.9,4.9,0,0,1-2.36.6h0A5,5,0,0,1,168,28.16Zm19.4-10.4a5,5,0,0,1,2-6.77h0a5,5,0,0,1,6.77,2h0a5,5,0,0,1-2.05,6.77h0a4.9,4.9,0,0,1-2.36.6h0A5,5,0,0,1,187.43,17.76Z"/><path class="cls-1" d="M211.24,10a5,5,0,0,1-5-5,5,5,0,1,1,5,5Z"/><path class="cls-1" d="M214.29,149.73a5,5,0,0,1-2.42-.62l-.87-.49a5,5,0,1,1,4.84-8.75l.87.49a5,5,0,0,1-2.42,9.37Zm-20.13-11.12a5,5,0,0,1-2.42-.62l-.87-.49a5,5,0,1,1,4.84-8.75l.87.48a5,5,0,0,1-2.42,9.38ZM174,127.48a5,5,0,0,1-2.42-.62l-.87-.48a5,5,0,0,1,4.83-8.76l.88.49a5,5,0,0,1-2.42,9.37ZM153.9,116.36a4.94,4.94,0,0,1-2.42-.63l-.88-.48a5,5,0,0,1,4.85-8.75l.87.49a5,5,0,0,1-2.42,9.37Zm-20.13-11.12a5.05,5.05,0,0,1-2.42-.63l-.87-.48a5,5,0,0,1,4.83-8.76l.88.49a5,5,0,0,1-2.42,9.38ZM113.64,94.11a5,5,0,0,1-2.42-.62l-.87-.49a5,5,0,0,1,4.83-8.75l.88.48a5,5,0,0,1-2.42,9.38Z"/><path class="cls-2" d="M207.87,47a5,5,0,0,1-2.23-.53h0l-.63-.32a5,5,0,1,1,4.47-8.94l.64.32.19.1h0a5.42,5.42,0,0,1,.91.66h.06a5,5,0,0,1,1.42,2.45h0a4.94,4.94,0,0,1-.4,3.34,5.12,5.12,0,0,1-.93,1.3h-.09a4.91,4.91,0,0,1-1.88,1.13h-.07A4.77,4.77,0,0,1,207.87,47Z"/><path class="cls-2" d="M134.87,76a5,5,0,0,1-2.23-.53h0l-.63-.32a5,5,0,1,1,4.47-8.94l.64.32.19.1h0a5.42,5.42,0,0,1,.91.66h.06a5,5,0,0,1,1.42,2.45h0a4.94,4.94,0,0,1-.4,3.34,5.12,5.12,0,0,1-.93,1.3h0s0,0,0,0h0a4.91,4.91,0,0,1-1.88,1.13h-.07A4.77,4.77,0,0,1,134.87,76Z"/><path class="cls-2" d="M197.87,103a5,5,0,0,1-2.23-.53h0l-.63-.32a5,5,0,1,1,4.47-8.94l.64.32.19.1h0a5.42,5.42,0,0,1,.91.66h.06a5,5,0,0,1,1.42,2.45h0a4.94,4.94,0,0,1-.4,3.34,5.12,5.12,0,0,1-.93,1.3h0s0,0,0,0h0a4.91,4.91,0,0,1-1.88,1.13h-.07A4.77,4.77,0,0,1,197.87,103Z"/><path class="cls-2" d="M223.87,70a5,5,0,0,1-2.23-.53h0l-.63-.32a5,5,0,1,1,4.47-8.94l.64.32.19.1h0a5.42,5.42,0,0,1,.91.66h.06a5,5,0,0,1,1.42,2.45h0a4.94,4.94,0,0,1-.4,3.34,5.12,5.12,0,0,1-.93,1.3h-.09a4.91,4.91,0,0,1-1.88,1.13h-.07A4.77,4.77,0,0,1,223.87,70Z"/><path class="cls-2" d="M217.87,125a5,5,0,0,1-2.23-.53h0l-.63-.32a5,5,0,1,1,4.47-8.94l.64.32.19.1h0a5.42,5.42,0,0,1,.91.66h.06a5,5,0,0,1,1.42,2.45h0a4.94,4.94,0,0,1-.4,3.34,5.12,5.12,0,0,1-.93,1.3h0s0,0,0,0h0a4.91,4.91,0,0,1-1.88,1.13h-.07A4.77,4.77,0,0,1,217.87,125Z"/><path class="cls-2" d="M155.87,92a5,5,0,0,1-2.23-.53h0l-.63-.32a5,5,0,1,1,4.47-8.94l.64.32.19.1h0a5.42,5.42,0,0,1,.91.66h.06a5,5,0,0,1,1.42,2.45h0a4.94,4.94,0,0,1-.4,3.34,5.12,5.12,0,0,1-.93,1.3h-.09a4.91,4.91,0,0,1-1.88,1.13h-.07A4.77,4.77,0,0,1,155.87,92Z"/><path class="cls-2" d="M173.87,68a5,5,0,0,1-2.23-.53h0l-.63-.32a5,5,0,1,1,4.47-8.94l.64.32.19.1h0a5.42,5.42,0,0,1,.91.66h.06a5,5,0,0,1,1.42,2.45h0a4.94,4.94,0,0,1-.4,3.34,5.12,5.12,0,0,1-.93,1.3h-.09a4.91,4.91,0,0,1-1.88,1.13h-.07A4.77,4.77,0,0,1,173.87,68Z"/></g></g></svg>