<svg xmlns="http://www.w3.org/2000/svg" viewBox="0 0 26.83 41.7"><defs><style>.cls-1,.cls-2,.cls-4{fill:none;stroke-miterlimit:10;}.cls-1{stroke:#201600;}.cls-1,.cls-2{stroke-width:1.25px;}.cls-2,.cls-4{stroke:#000105;}.cls-3{fill:#000105;}.cls-4{stroke-width:0.75px;}</style></defs><title>ear_icn1</title><g id="Слой_2" data-name="Слой 2"><g id="Слой_2-2" data-name="Слой 2"><path class="cls-1" d="M25.1,35.71s.91,3.18-.61,4.39a3.78,3.78,0,0,1-3.2.95,3.22,3.22,0,0,1-3-1.44c-1.62-2.34-1.25-3.65-4-5.48S2.23,25.2,3.92,13.82c0,0,1.26-12.07,11.2-13.14,0,0,6.6-.91,9.39,4.68a20,20,0,0,1,1.33,11.21"/><path class="cls-1" d="M23,32a7.22,7.22,0,0,0-6.18-4.21c-4.72-.4-7.22-3.64-7.36-5.58s-.22-3.38,2.64-5a15,15,0,0,1,4.77-.68c1.91.21,6.43-1.86,7.14-2.46"/><path class="cls-2" d="M25.5,29.69s-3.13-.45-2.38-3.38,1.41-2.69.59-5.28c0,0-.82-2.16-5.35-.08"/><path class="cls-3" d="M1.7,10.78a1,1,0,1,1-.95,1,.95.95,0,0,1,1-1m0-.75a1.7,1.7,0,1,0,1.7,1.7A1.7,1.7,0,0,0,1.7,10Z"/><path class="cls-3" d="M25.13.9a1,1,0,1,1-.95,1A1,1,0,0,1,25.13.9m0-.75a1.7,1.7,0,1,0,1.7,1.7,1.7,1.7,0,0,0-1.7-1.7Z"/><line class="cls-4" x1="5.83" y1="10.3" x2="21.93" y2="3.55"/></g></g></svg>