<svg xmlns="http://www.w3.org/2000/svg" viewBox="0 0 22.95 31.86"><defs><style>.cls-1{fill:none;stroke:#201600;stroke-miterlimit:10;}.cls-2{fill:#201600;}</style></defs><title>face_icn</title><g id="Слой_2" data-name="Слой 2"><g id="Слой_2-2" data-name="Слой 2"><path class="cls-1" d="M5.29,23.62l-.68-.32a7.15,7.15,0,0,1-4-7.54,9.65,9.65,0,0,1,1.83-4.55l.75-.82c.43-.35.83-.71,1.27-1a21.32,21.32,0,0,1,5.18-2.6,24.3,24.3,0,0,1,6.93-1.62l1.29,0c0,.08.08.19.15.24a13.46,13.46,0,0,1,1.26.8,6.9,6.9,0,0,1,2.19,3.29,4.4,4.4,0,0,1,.2,2.1A3.2,3.2,0,0,1,21,13"/><path class="cls-1" d="M2.45,10.92A2.14,2.14,0,0,1,1.9,9a3.37,3.37,0,0,1,.15-.78A11.16,11.16,0,0,1,9.91.79c.5-.14,1-.19,1.53-.29h1.19l.19.05a6.79,6.79,0,0,1,3.82,1.58,2.88,2.88,0,0,1,1.23,2.71"/><path class="cls-1" d="M20,20l.15-.09c.21-.15.38-.27.54-.4a4.31,4.31,0,0,0,.77-6.22,4.58,4.58,0,0,0-2.34-1.43,10.17,10.17,0,0,0-5.28-.14c-.67.15-1.33.38-2,.57L7,14.58"/><path class="cls-2" d="M12.89,13.8c6.36,0,6.5,5.3,6.5,5.3v4.81a8.29,8.29,0,0,1-6.51,7h-.74c-5.53-1.13-6.58-6.78-6.58-6.78l-.09-4.94c0-3,1.07-5.34,7.42-5.34m0-1c-5.82,0-8.42,1.95-8.42,6.34l.09,5v.17c0,.25,1.25,6.32,7.37,7.57l.1,0H13l.08,0a9.26,9.26,0,0,0,7.34-7.76v-5c0-.09-.25-6.3-7.5-6.3Z"/><circle class="cls-1" cx="9.05" cy="20.54" r="2.08"/><circle class="cls-1" cx="15.82" cy="20.51" r="2.08"/><path class="cls-2" d="M14,27.86H10.82a1.49,1.49,0,0,0,1.67,1A1.4,1.4,0,0,0,14,27.86Z"/><path class="cls-2" d="M11,27.64H13.9a.94.94,0,0,0-1-.71h-1A.92.92,0,0,0,11,27.64Z"/></g></g></svg>