<svg xmlns="http://www.w3.org/2000/svg" viewBox="0 0 32.02 40.84"><defs><style>.cls-1,.cls-2{fill:none;stroke:#201600;stroke-miterlimit:10;}.cls-1{stroke-linecap:round;}</style></defs><title>gun_icn_1</title><g id="Слой_2" data-name="Слой 2"><g id="Слой_4" data-name="Слой 4"><path class="cls-1" d="M9.26,28.37,8.11,31.74c-1,2.92-3.11,1.9-3.11,1.9C3.39,38.91.92,40.14.92,40.14c-1.1-2.86,1.19-7.68,1.19-7.68S0,31.79.62,29.85s3.93-11,3.93-11a2,2,0,0,1,2.88-.73"/><path class="cls-1" d="M9.7,26.82l2-5.52S12.28,19.91,10,19l1.2-3"/><path class="cls-1" d="M18.54,18.6,5.37,13.74a1,1,0,0,1-.62-1.34l0-.07a1.05,1.05,0,0,1,1.35-.62l20.51,7.56a1,1,0,0,1,.62,1.34l0,.07a1.06,1.06,0,0,1-1.35.62l-5.67-2.08"/><path class="cls-1" d="M23.43,4.59l7.76,2.74c.32.11.42.65.23,1.19l0,.07c-.19.54-.61.89-.93.78L18.39,5.1c-.32-.11-.42-.65-.23-1.19l0-.07c.19-.54.61-.89.93-.78l2.94,1"/><line class="cls-2" x1="8.38" y1="15.37" x2="7.08" y2="18.47"/><rect class="cls-2" x="23.78" y="9.9" width="4.8" height="7.09" rx="1.37" ry="1.37" transform="translate(5.85 -7.84) rotate(19.14)"/><rect class="cls-2" x="16.63" y="7.25" width="4.8" height="7.09" rx="1.37" ry="1.37" transform="translate(4.59 -5.64) rotate(19.14)"/><path class="cls-2" d="M16.39,15.37a1.49,1.49,0,0,0,.69-1.5"/><path class="cls-2" d="M17.35,15.82a1.33,1.33,0,0,1,.67-1.6"/><path class="cls-2" d="M23.9,18.21a1.49,1.49,0,0,0,.68-1.5"/><path class="cls-2" d="M24.85,18.65a1.34,1.34,0,0,1,.68-1.6"/><path class="cls-2" d="M26.88,9.92a1.49,1.49,0,0,0,.69-1.5"/><path class="cls-2" d="M27.84,10.36a1.33,1.33,0,0,1,.67-1.6"/><path class="cls-2" d="M19.66,7.18a1.47,1.47,0,0,0,.68-1.49"/><path class="cls-2" d="M20.61,7.63A1.33,1.33,0,0,1,21.28,6"/><line class="cls-2" x1="7.27" y1="18.03" x2="9.9" y2="18.91"/><line class="cls-2" x1="2.47" y1="32.57" x2="4.65" y2="33.47"/><line class="cls-2" x1="9.65" y1="21.06" x2="7.03" y2="28.42"/><circle class="cls-2" cx="14.46" cy="2.52" r="2.02"/><line class="cls-2" x1="13.81" y1="4.43" x2="11.88" y2="9.72"/><path class="cls-2" d="M12.09,13.7s1.37-3.64-.15-4.16"/><path class="cls-2" d="M9.17,12.62S10.48,9,12,9.54"/></g></g></svg>