<svg xmlns="http://www.w3.org/2000/svg" viewBox="0 0 36.46 41.99"><defs><style>.cls-1,.cls-4{fill:#201600;}.cls-2{fill:none;}.cls-2,.cls-3,.cls-4{stroke:#201600;stroke-miterlimit:10;}.cls-3{fill:#948968;}.cls-4{stroke-width:0.75px;}</style></defs><title>laser_icn_1</title><g id="Слой_2" data-name="Слой 2"><g id="Слой_2-2" data-name="Слой 2"><path class="cls-1" d="M5.66,37.33A4.66,4.66,0,0,1,10.21,41H1.11a4.66,4.66,0,0,1,4.55-3.66m0-1A5.66,5.66,0,0,0,0,42H11.32a5.66,5.66,0,0,0-5.66-5.66Z"/><line class="cls-2" x1="6.34" y1="36.79" x2="12.97" y2="23.55"/><line class="cls-2" x1="8.11" y1="37.89" x2="14.97" y2="24.27"/><path class="cls-1" d="M6.84,1.82a1.9,1.9,0,1,1-1.9,1.9,1.9,1.9,0,0,1,1.9-1.9m0-1a2.9,2.9,0,1,0,2.9,2.9A2.9,2.9,0,0,0,6.84.82Z"/><path class="cls-1" d="M15,20.21a1.9,1.9,0,1,1-1.9,1.89A1.89,1.89,0,0,1,15,20.21m0-1a2.9,2.9,0,1,0,2.89,2.89A2.89,2.89,0,0,0,15,19.21Z"/><line class="cls-2" x1="6.15" y1="5.89" x2="13.48" y2="20.76"/><line class="cls-2" x1="8.18" y1="5.54" x2="15.14" y2="19.72"/><polyline class="cls-2" points="8.77 2.75 27.72 2.75 27.72 0.5 35.96 0.5 35.96 10.16 34.28 10.16 34.28 13.8 29.49 13.8 29.49 10.16 28.69 10.16 27.72 10.16 27.72 5.08 8.77 5.08"/><line class="cls-2" x1="27.72" y1="0.71" x2="27.72" y2="8.9"/><line class="cls-2" x1="27.9" y1="5.17" x2="35.99" y2="5.17"/><line class="cls-2" x1="27.88" y1="7.53" x2="32.84" y2="7.53"/><line class="cls-2" x1="30.08" y1="2.78" x2="33.66" y2="2.76"/><line class="cls-2" x1="34.88" y1="10.16" x2="28.69" y2="10.16"/><line class="cls-2" x1="9.96" y1="39.29" x2="5.22" y2="39.29"/><polyline class="cls-2" points="30.59 14.31 30.59 16.19 31.79 18.29"/><polyline class="cls-2" points="33.22 14.31 33.22 16.19 32.03 18.29"/><line class="cls-3" x1="31.91" y1="18.07" x2="31.91" y2="32.03"/><circle class="cls-1" cx="31.91" cy="31.87" r="1.12"/><line class="cls-4" x1="30.08" y1="29.99" x2="31.88" y2="31.93"/><line class="cls-4" x1="31.91" y1="31.93" x2="33.71" y2="33.86"/><line class="cls-4" x1="33.71" y1="29.99" x2="31.91" y2="31.93"/><line class="cls-4" x1="31.88" y1="31.93" x2="30.08" y2="33.86"/><line class="cls-4" x1="29.22" y1="31.75" x2="34.53" y2="31.75"/><line class="cls-4" x1="31.91" y1="31.64" x2="31.87" y2="34.34"/></g></g></svg>