<svg xmlns="http://www.w3.org/2000/svg" viewBox="0 0 273.92 335.37"><defs><style>.cls-1{fill:#535353;}</style></defs><title>reviv_icn</title><g id="Слой_2" data-name="Слой 2"><g id="Слой_4" data-name="Слой 4"><path class="cls-1" d="M102.71,86.56H5a5,5,0,0,1-5-5V53.35a5,5,0,0,1,5-5h95.7a5,5,0,0,1,0,10H10V76.56h92.71a5,5,0,0,1,0,10Z"/><path class="cls-1" d="M96.1,294.6c-2,0-3.89-.05-5.66-.08l-2.31,0c-4.3-.07-8.65-.29-12.86-.5a206,206,0,0,0-23.56-.26c-16.51,1.12-24.22-19.12-26.18-31.26C24.6,256.69,13.93,104.36,12.72,87a5,5,0,1,1,10-.7c4.72,67.61,12,169.89,12.7,174.56,1,6,5.81,22.88,15.1,22.88H51a209.93,209.93,0,0,1,24.73.24c4.13.21,8.4.42,12.54.49l2.36,0c9.77.22,23.13.51,27.9-6.67a5,5,0,1,1,8.33,5.54C120.29,293.33,107,294.6,96.1,294.6Z"/><path class="cls-1" d="M107.75,330.33H45.29a5,5,0,0,1-5-5V289.07a5,5,0,0,1,10,0v31.26h52.46V289.07a5,5,0,0,1,10,0v36.26A5,5,0,0,1,107.75,330.33Z"/><path class="cls-1" d="M110.77,159.09H24.14a5,5,0,0,1,0-10h86.63a5,5,0,1,1,0,10Z"/><path class="cls-1" d="M116.81,245.72H31.19a5,5,0,0,1,0-10h85.62a5,5,0,0,1,0,10Z"/><path class="cls-1" d="M268.92,46.26H89.62a5,5,0,0,1-5-5V5a5,5,0,0,1,5-5h179.3a5,5,0,0,1,5,5V41.26A5,5,0,0,1,268.92,46.26Zm-174.3-10h169.3V10H94.62Z"/><path class="cls-1" d="M186.21,276c-26.84,0-55.17-.49-60.61-.59a5,5,0,0,1-4.89-4.56L101.08,47.94a5,5,0,0,1,10-.88L130.28,265.5c35.42.59,85.5.88,100.5-.41L253.59,45.36a5,5,0,1,1,10,1L240.32,270a5,5,0,0,1-3.87,4.36C230.86,275.65,209.08,276,186.21,276Z"/><path class="cls-1" d="M223.59,335.37H140a5,5,0,0,1-5-5V276a5,5,0,0,1,10,0v49.4h73.61V276a5,5,0,0,1,10,0v54.4A5,5,0,0,1,223.59,335.37Z"/><path class="cls-1" d="M245.75,136.92H114.8a5,5,0,1,1,0-10h131a5,5,0,1,1,0,10Z"/><path class="cls-1" d="M236.69,225.57H122.86a5,5,0,0,1,0-10H236.69a5,5,0,0,1,0,10Z"/><path class="cls-1" d="M213.26,257V247h-.16c2-.14,4.19-2.42,4.19-8.36a5,5,0,0,1,10,0C227.29,253.11,218.11,257,213.26,257Z"/><path class="cls-1" d="M216.54,314.22H146a5,5,0,1,1,0-10h70.51a5,5,0,0,1,0,10Z"/><path class="cls-1" d="M198.75,311.84a5,5,0,0,1-5-5c0-6.27-5.45-11.35-12.14-11.35s-12,5-12.14,11.1a5,5,0,0,1-5,4.92h-.08a5,5,0,0,1-4.92-5.08c.19-11.54,10.12-20.93,22.14-20.93,12.2,0,22.14,9.57,22.14,21.32A5,5,0,0,1,198.75,311.84Z"/></g></g></svg>