<svg xmlns="http://www.w3.org/2000/svg" viewBox="0 0 42.05 22.64"><defs><style>.cls-1{fill:#948968;}</style></defs><title>bird_icn</title><g id="Слой_2" data-name="Слой 2"><g id="Layer_1" data-name="Layer 1"><path class="cls-1" d="M40.57,7.06c-3.38,2-7.21,3.07-10.7,5,4,.59,8.11,0,12.12.47l.06.54a9.42,9.42,0,0,1-1.6.54c-4,.65-8,1.26-12,1.88-2.6.41-5.21.75-7.79,1.27a2.74,2.74,0,0,0-1.44,1.34c-3.36,5.9-12.53,6.14-16.08.36a11.56,11.56,0,0,1-1-2.61c-.31-1-.49-2-1.6-2.5-.24-.11-.38-.46-.56-.69l.78-.44a9.72,9.72,0,0,0,2.11-1.15,4.21,4.21,0,0,1,3.6-1.23c.84.12,1.19-.24,1.71-.84,2.46-2.84,5-5.61,7.57-8.36A1.67,1.67,0,0,1,18.08.34a1.68,1.68,0,0,1,.66,2.22,2.48,2.48,0,0,0,0,1,6.14,6.14,0,0,0,1.14-.16c.3-.11.55-.5.83-.51.74,0,1.67-.21,2.16.17s.34,1.3.41,2a10.11,10.11,0,0,1,0,1.74c0,.62-.17,1.24-.22,1.86,0,.43-.13,1,.09,1.25a1.46,1.46,0,0,0,1.22.33C29.29,9.08,34.16,7.86,39,6.66a8.58,8.58,0,0,1,1.35-.11Zm-7.71,6.62,0-.38c-2,0-4,.11-6,0-3.55-.26-6.78.17-9.5,2.81a3.77,3.77,0,0,1-3.84.65c-2.33-.69-3-3-4.54-4.45s-2.86-2-4.13-1.12a11.26,11.26,0,0,1,1.3,1.72c.07.14-.45.84-.79.92C4,14.12,3.89,13,3.69,12.13a1.64,1.64,0,0,0-.95,2.17c1,4.12,2.19,6.27,7.09,7.31,3.14.66,7.35-1.31,8.55-4.17a2.63,2.63,0,0,1,2.3-1.75c1.72-.26,3.45-.47,5.16-.75C28.19,14.54,30.52,14.1,32.86,13.68Zm-12-6.88-.19-.35a11.24,11.24,0,0,0,1.44-1.4,3.08,3.08,0,0,0,.25-1.22c-.39,0-.86-.17-1.16,0a20.94,20.94,0,0,0-2.08,1.45c-2.11,1.5-4.23,3-6.3,4.52a3.48,3.48,0,0,0-.91,4.56,3.33,3.33,0,0,0,4.32,1.22c2-1.21,3.88-2.64,5.78-4a1,1,0,0,0,.34-.83c-.07-.24-.45-.43-.73-.55A7.64,7.64,0,0,0,20.5,9.9c.28-.35.54-.7.84-1,.16-.17.42-.26.54-.45a2.13,2.13,0,0,0,.46-1c0-.18-.55-.37-.87-.49A2.39,2.39,0,0,0,20.81,6.8ZM18.2,4.26l-1.74.27-.25-.26a8.75,8.75,0,0,0,1.06-1.46,6.38,6.38,0,0,0,.31-1.54c-.51.17-1.17.19-1.5.53-2.25,2.34-4.45,4.72-6.63,7.13-1.13,1.24-.82,2.23.85,2.93C11.49,8,15.7,7.26,18.2,4.26Zm5,7.34.07.53c2.93.89,5.16-1,7.65-1.86l-.13-.52Z"/></g></g></svg>