<?xml version="1.0" encoding="UTF-8"?>
<svg xmlns="http://www.w3.org/2000/svg" xmlns:xlink="http://www.w3.org/1999/xlink" viewBox="0 0 50 50" version="1.1" width="50px" height="50px">
<g id="surface1">
<path style=" " d="M 40 6 C 38.707031 6 37.605469 6.84375 37.1875 8 L 36.414063 8 L 35.207031 6.792969 C 35.019531 6.597656 34.761719 6.492188 34.488281 6.492188 C 34.082031 6.492188 33.71875 6.738281 33.5625 7.113281 C 33.410156 7.492188 33.5 7.921875 33.792969 8.207031 L 36.585938 11 L 35.480469 12.105469 L 35.289063 11.914063 C 34.886719 11.511719 34.328125 11.449219 33.914063 11.535156 C 33.5 11.621094 33.148438 11.824219 32.855469 12.121094 L 32.855469 12.125 L 27.125 17.851563 C 26.828125 18.148438 26.621094 18.5 26.535156 18.914063 C 26.449219 19.328125 26.515625 19.886719 26.917969 20.289063 L 27.105469 20.480469 L 26 21.585938 L 25.414063 21 L 26.207031 20.207031 L 24.792969 18.792969 L 24.292969 19.292969 L 21.707031 16.707031 L 22.707031 15.707031 L 21.292969 14.292969 L 20 15.585938 L 19.207031 14.792969 C 18.957031 14.53125 18.582031 14.425781 18.234375 14.519531 C 17.882813 14.609375 17.609375 14.882813 17.519531 15.234375 C 17.425781 15.582031 17.53125 15.957031 17.792969 16.207031 L 18.585938 17 L 17.292969 18.292969 L 18.707031 19.707031 L 19.707031 18.707031 L 22.292969 21.292969 L 22 21.585938 L 21.414063 21 C 21.027344 20.613281 20.515625 20.417969 20 20.421875 C 19.484375 20.421875 18.972656 20.613281 18.585938 21 L 10 29.585938 C 9.226563 30.359375 9.226563 31.640625 10 32.414063 L 10.292969 32.707031 L 5 38 L 5.5 38.5 L 3 41 L 1 44 L 4 42 L 6.5 39.5 L 7 40 L 12.292969 34.707031 L 12.585938 35 C 13.359375 35.773438 14.640625 35.773438 15.414063 35 L 24 26.414063 C 24.773438 25.640625 24.773438 24.359375 24 23.585938 L 23.414063 23 L 24 22.414063 L 35.707031 34.121094 L 37.121094 32.707031 C 36.722656 32.308594 36.722656 31.691406 37.121094 31.292969 L 46.292969 22.121094 C 46.691406 21.722656 47.308594 21.722656 47.707031 22.121094 L 49.121094 20.707031 L 48.363281 19.949219 C 48.683594 19.828125 48.921875 19.550781 48.992188 19.214844 C 49.0625 18.878906 48.953125 18.53125 48.707031 18.292969 L 47.707031 17.292969 C 47.519531 17.097656 47.261719 16.992188 46.988281 16.988281 C 46.574219 16.992188 46.199219 17.25 46.054688 17.640625 L 40.375 11.964844 C 41.503906 11.816406 42.4375 11.042969 42.8125 10 L 45 10 L 45 8 L 42.8125 8 C 42.394531 6.84375 41.292969 6 40 6 Z M 40 8 C 40.5625 8 41 8.4375 41 9 C 41 9.5625 40.5625 10 40 10 C 39.4375 10 39 9.5625 39 9 C 39 8.4375 39.4375 8 40 8 Z M 38 12.414063 L 41.585938 16 L 40.480469 17.105469 L 40.289063 16.914063 C 39.886719 16.511719 39.328125 16.449219 38.914063 16.535156 C 38.5 16.621094 38.148438 16.824219 37.855469 17.121094 L 37.855469 17.125 L 32.125 22.851563 C 31.828125 23.148438 31.621094 23.5 31.535156 23.914063 C 31.449219 24.328125 31.515625 24.886719 31.917969 25.289063 L 32.105469 25.480469 L 31 26.585938 L 27.414063 23 L 28.519531 21.894531 L 28.710938 22.082031 C 29.113281 22.484375 29.675781 22.550781 30.089844 22.464844 C 30.5 22.378906 30.851563 22.171875 31.144531 21.875 L 31.148438 21.875 L 36.875 16.144531 C 37.171875 15.851563 37.378906 15.5 37.464844 15.085938 C 37.550781 14.671875 37.484375 14.113281 37.085938 13.714844 L 37.085938 13.710938 L 36.894531 13.519531 Z M 34.175781 13.628906 L 35.371094 14.824219 L 29.828125 20.371094 L 28.628906 19.171875 Z M 43 17.414063 L 45.085938 19.5 L 34.5 30.085938 L 32.414063 28 L 33.519531 26.894531 L 33.710938 27.082031 C 34.113281 27.484375 34.675781 27.550781 35.089844 27.464844 C 35.5 27.378906 35.851563 27.171875 36.144531 26.875 L 36.148438 26.875 L 41.875 21.144531 C 42.171875 20.851563 42.378906 20.5 42.464844 20.085938 C 42.550781 19.671875 42.484375 19.113281 42.085938 18.714844 L 42.085938 18.710938 L 41.894531 18.519531 Z M 39.175781 18.628906 L 40.371094 19.824219 L 34.828125 25.371094 L 33.628906 24.171875 Z M 20 22.414063 L 22.585938 25 L 14 33.585938 L 11.414063 31 Z "/>
</g>
</svg>
