<?xml version="1.0" encoding="UTF-8"?>
<svg xmlns="http://www.w3.org/2000/svg" xmlns:xlink="http://www.w3.org/1999/xlink" viewBox="0 0 50 50" version="1.1" width="50px" height="50px">
<g id="surface1">
<path style=" " d="M 6.984375 -0.015625 C 6.433594 -0.00390625 5.992188 0.449219 6 1 L 6 5 C 5.746094 5 5.488281 5.097656 5.292969 5.292969 C 5.097656 5.488281 5 5.746094 5 6 L 1 6 C 0.640625 5.996094 0.304688 6.183594 0.121094 6.496094 C -0.0585938 6.808594 -0.0585938 7.191406 0.121094 7.503906 C 0.304688 7.816406 0.640625 8.003906 1 8 L 6.585938 8 L 7.585938 9 L 4 9 C 3.640625 8.996094 3.304688 9.183594 3.121094 9.496094 C 2.941406 9.808594 2.941406 10.191406 3.121094 10.503906 C 3.304688 10.816406 3.640625 11.003906 4 11 L 9.585938 11 L 10.585938 12 L 7 12 C 6.640625 11.996094 6.304688 12.183594 6.121094 12.496094 C 5.941406 12.808594 5.941406 13.191406 6.121094 13.503906 C 6.304688 13.816406 6.640625 14.003906 7 14 L 12.585938 14 L 14.792969 16.207031 C 14.800781 16.214844 14.816406 16.222656 14.828125 16.230469 L 14.824219 16.234375 L 14.828125 16.242188 C 14.832031 16.238281 14.832031 16.234375 14.832031 16.234375 C 14.832031 16.234375 14.835938 16.234375 14.839844 16.234375 C 14.863281 16.144531 14.898438 16.0625 14.921875 15.972656 L 15.410156 14.691406 C 15.484375 14.53125 15.550781 14.363281 15.628906 14.21875 L 22.707031 21.296875 L 21.296875 22.707031 L 14.828125 16.242188 C 12.035156 25.019531 13.769531 39.550781 13.859375 40.296875 C 13.914063 40.738281 14.25 41.085938 14.683594 41.160156 C 15.121094 41.234375 20.460938 42.132813 26.617188 42.132813 C 30.777344 42.132813 35.308594 41.71875 38.953125 40.371094 L 44.585938 46 L 42 46 C 41.640625 45.996094 41.304688 46.183594 41.121094 46.496094 C 40.941406 46.808594 40.941406 47.191406 41.121094 47.503906 C 41.304688 47.816406 41.640625 48.003906 42 48 L 46.847656 48 C 47.167969 48.054688 47.492188 47.949219 47.722656 47.722656 C 47.949219 47.492188 48.054688 47.167969 48 46.847656 L 48 42 C 48.003906 41.730469 47.898438 41.46875 47.707031 41.277344 C 47.515625 41.085938 47.253906 40.980469 46.984375 40.984375 C 46.433594 40.996094 45.992188 41.449219 46 42 L 46 44.585938 L 40.917969 39.5 C 41.949219 38.957031 42.878906 38.316406 43.648438 37.546875 C 48.21875 32.976563 48.535156 25.855469 44.355469 21.675781 C 42.242188 19.566406 39.347656 18.53125 36.261719 18.765625 C 36.492188 15.683594 35.464844 12.789063 33.355469 10.675781 C 29.171875 6.496094 22.054688 6.816406 17.484375 11.382813 C 16.742188 12.125 16.125 13.085938 15.609375 14.195313 L 14 12.585938 L 14 7 C 14.003906 6.730469 13.898438 6.46875 13.707031 6.277344 C 13.515625 6.085938 13.253906 5.980469 12.984375 5.984375 C 12.433594 5.996094 11.992188 6.449219 12 7 L 12 10.585938 L 11 9.585938 L 11 4 C 11.003906 3.730469 10.898438 3.46875 10.707031 3.277344 C 10.515625 3.085938 10.253906 2.980469 9.984375 2.984375 C 9.433594 2.996094 8.992188 3.449219 9 4 L 9 7.585938 L 8 6.585938 L 8 1 C 8.003906 0.730469 7.898438 0.46875 7.707031 0.277344 C 7.515625 0.0859375 7.253906 -0.0195313 6.984375 -0.015625 Z M 25.140625 10.0625 C 25.695313 9.972656 26.199219 10.347656 26.285156 10.890625 C 26.371094 11.4375 26 11.949219 25.453125 12.035156 C 25.175781 12.078125 24.890625 12.144531 24.601563 12.234375 C 24.503906 12.261719 24.410156 12.277344 24.3125 12.277344 C 23.882813 12.277344 23.488281 11.996094 23.355469 11.5625 C 23.195313 11.035156 23.496094 10.476563 24.027344 10.316406 C 24.402344 10.203125 24.777344 10.117188 25.140625 10.0625 Z M 29.308594 10.683594 C 29.4375 10.695313 29.566406 10.730469 29.6875 10.796875 C 30.023438 10.972656 30.355469 11.175781 30.671875 11.40625 C 31.117188 11.730469 31.214844 12.355469 30.890625 12.800781 C 30.695313 13.074219 30.390625 13.214844 30.078125 13.214844 C 29.875 13.214844 29.671875 13.152344 29.496094 13.027344 C 29.257813 12.851563 29.011719 12.699219 28.761719 12.566406 C 28.269531 12.308594 28.082031 11.703125 28.339844 11.214844 C 28.53125 10.847656 28.921875 10.652344 29.308594 10.683594 Z M 20.902344 12.253906 C 21.15625 12.277344 21.402344 12.398438 21.582031 12.609375 C 21.9375 13.03125 21.882813 13.660156 21.460938 14.015625 C 21.226563 14.214844 20.996094 14.425781 20.765625 14.648438 C 20.570313 14.835938 20.320313 14.933594 20.066406 14.933594 C 19.808594 14.933594 19.546875 14.832031 19.351563 14.628906 C 18.964844 14.234375 18.976563 13.601563 19.371094 13.21875 C 19.636719 12.957031 19.902344 12.714844 20.171875 12.488281 C 20.382813 12.308594 20.648438 12.234375 20.902344 12.253906 Z M 32.378906 14.519531 C 32.765625 14.570313 33.101563 14.839844 33.214844 15.238281 C 33.3125 15.582031 33.398438 15.933594 33.46875 16.289063 C 33.585938 16.828125 33.238281 17.359375 32.699219 17.472656 C 32.628906 17.488281 32.558594 17.496094 32.488281 17.496094 C 32.027344 17.496094 31.613281 17.171875 31.511719 16.703125 C 31.445313 16.390625 31.371094 16.082031 31.285156 15.78125 C 31.140625 15.25 31.453125 14.699219 31.984375 14.546875 C 32.117188 14.511719 32.25 14.503906 32.378906 14.519531 Z M 15.378906 14.761719 C 15.257813 15.046875 15.140625 15.339844 15.03125 15.640625 C 15.136719 15.332031 15.253906 15.039063 15.378906 14.761719 Z M 32.933594 19.503906 C 33.316406 19.476563 33.664063 19.6875 33.84375 20 C 33.988281 20.050781 34.109375 20.144531 34.214844 20.253906 C 34.238281 20.3125 34.253906 20.371094 34.285156 20.421875 C 34.320313 20.484375 34.378906 20.527344 34.425781 20.578125 C 34.460938 20.664063 34.480469 20.757813 34.488281 20.855469 C 34.535156 21.40625 34.125 21.890625 33.574219 21.933594 C 33.4375 21.945313 33.308594 21.960938 33.183594 21.984375 C 33.121094 21.996094 33.0625 22 33 22 C 32.769531 22 32.546875 21.921875 32.367188 21.773438 C 32.140625 21.585938 32.007813 21.3125 32 21.015625 C 32 21.007813 31.996094 20.839844 31.984375 20.550781 C 31.957031 20 32.382813 19.53125 32.933594 19.503906 Z M 37.085938 20.75 C 37.605469 20.75 38.113281 20.78125 38.609375 20.871094 C 38.734375 20.917969 38.863281 20.957031 38.984375 21.007813 C 39.496094 21.214844 39.742188 21.800781 39.53125 22.3125 C 39.375 22.699219 39.003906 22.9375 38.609375 22.9375 C 38.484375 22.9375 38.351563 22.910156 38.230469 22.859375 C 37.929688 22.738281 37.621094 22.625 37.3125 22.523438 C 36.789063 22.351563 36.503906 21.785156 36.675781 21.261719 C 36.75 21.035156 36.90625 20.871094 37.085938 20.75 Z M 17.097656 21.339844 C 17.644531 21.410156 18.03125 21.910156 17.960938 22.457031 C 17.917969 22.78125 17.882813 23.109375 17.847656 23.4375 C 17.792969 23.953125 17.359375 24.335938 16.855469 24.335938 C 16.820313 24.335938 16.78125 24.332031 16.75 24.328125 C 16.199219 24.269531 15.800781 23.78125 15.859375 23.230469 C 15.894531 22.886719 15.933594 22.542969 15.980469 22.203125 C 16.050781 21.652344 16.550781 21.277344 17.097656 21.339844 Z M 42.152344 23.136719 C 42.40625 23.140625 42.660156 23.242188 42.851563 23.4375 C 43.128906 23.726563 43.382813 24.027344 43.609375 24.339844 C 43.9375 24.785156 43.84375 25.410156 43.398438 25.734375 C 43.21875 25.867188 43.011719 25.929688 42.808594 25.929688 C 42.5 25.929688 42.199219 25.789063 42 25.519531 C 41.824219 25.28125 41.625 25.046875 41.410156 24.828125 C 41.027344 24.429688 41.039063 23.796875 41.4375 23.414063 C 41.636719 23.222656 41.894531 23.128906 42.152344 23.136719 Z M 16.625 26.375 C 17.179688 26.390625 17.613281 26.851563 17.597656 27.402344 C 17.585938 27.738281 17.582031 28.070313 17.578125 28.402344 C 17.566406 28.949219 17.121094 29.386719 16.578125 29.386719 L 16.5625 29.386719 C 16.007813 29.378906 15.566406 28.925781 15.578125 28.371094 C 15.582031 28.03125 15.585938 27.691406 15.597656 27.347656 C 15.613281 26.792969 16.070313 26.378906 16.625 26.375 Z M 44.082031 27.84375 C 44.636719 27.855469 45.074219 28.3125 45.058594 28.863281 C 45.046875 29.257813 45.003906 29.660156 44.933594 30.058594 C 44.84375 30.542969 44.421875 30.878906 43.949219 30.878906 C 43.890625 30.878906 43.828125 30.875 43.765625 30.863281 C 43.222656 30.761719 42.863281 30.242188 42.964844 29.699219 C 43.019531 29.402344 43.050781 29.105469 43.058594 28.816406 C 43.074219 28.261719 43.507813 27.828125 44.082031 27.84375 Z M 16.589844 31.4375 C 17.148438 31.382813 17.601563 31.847656 17.625 32.398438 C 17.636719 32.742188 17.648438 33.078125 17.667969 33.398438 C 17.691406 33.949219 17.265625 34.417969 16.714844 34.441406 C 16.695313 34.445313 16.679688 34.445313 16.667969 34.445313 C 16.136719 34.445313 15.691406 34.027344 15.667969 33.492188 C 15.652344 33.164063 15.636719 32.820313 15.625 32.46875 C 15.605469 31.917969 16.035156 31.453125 16.589844 31.4375 Z M 42.066406 32.648438 C 42.320313 32.613281 42.585938 32.675781 42.808594 32.84375 C 43.246094 33.175781 43.332031 33.804688 42.996094 34.242188 C 42.773438 34.535156 42.535156 34.824219 42.277344 35.109375 C 42.082031 35.332031 41.808594 35.441406 41.53125 35.441406 C 41.296875 35.441406 41.054688 35.359375 40.863281 35.1875 C 40.453125 34.816406 40.421875 34.183594 40.792969 33.773438 C 41.011719 33.53125 41.214844 33.28125 41.40625 33.03125 C 41.570313 32.8125 41.8125 32.683594 42.066406 32.648438 Z M 38.140625 35.855469 C 38.53125 35.847656 38.90625 36.070313 39.074219 36.449219 C 39.296875 36.953125 39.070313 37.542969 38.5625 37.765625 C 38.226563 37.914063 37.882813 38.054688 37.523438 38.183594 C 37.414063 38.222656 37.296875 38.238281 37.1875 38.238281 C 36.777344 38.238281 36.390625 37.984375 36.246094 37.578125 C 36.058594 37.054688 36.332031 36.484375 36.851563 36.296875 C 37.164063 36.1875 37.464844 36.070313 37.753906 35.9375 C 37.882813 35.882813 38.011719 35.855469 38.140625 35.855469 Z M 16.855469 36.511719 C 17.320313 36.453125 17.730469 36.742188 17.886719 37.152344 C 18.289063 37.324219 18.542969 37.746094 18.484375 38.203125 C 18.414063 38.707031 17.984375 39.070313 17.492188 39.070313 C 17.445313 39.070313 17.402344 39.066406 17.359375 39.0625 C 17.027344 39.015625 16.84375 38.984375 16.84375 38.984375 C 16.402344 38.917969 16.058594 38.558594 16.007813 38.109375 L 15.953125 37.601563 C 15.902344 37.050781 16.304688 36.5625 16.855469 36.511719 Z M 32.980469 37.238281 C 33.519531 37.15625 34.03125 37.53125 34.117188 38.078125 C 34.203125 38.621094 33.828125 39.132813 33.28125 39.21875 C 32.929688 39.273438 32.574219 39.320313 32.21875 39.363281 C 32.175781 39.371094 32.132813 39.371094 32.09375 39.371094 C 31.59375 39.371094 31.164063 39 31.101563 38.496094 C 31.035156 37.945313 31.421875 37.449219 31.96875 37.378906 C 32.308594 37.339844 32.644531 37.292969 32.980469 37.238281 Z M 21.722656 37.5 C 22.054688 37.519531 22.398438 37.546875 22.75 37.566406 C 23.304688 37.597656 23.726563 38.070313 23.691406 38.621094 C 23.664063 39.152344 23.222656 39.5625 22.695313 39.5625 C 22.675781 39.5625 22.65625 39.5625 22.640625 39.5625 C 22.273438 39.542969 21.917969 39.515625 21.578125 39.492188 C 21.027344 39.453125 20.613281 38.972656 20.65625 38.421875 C 20.695313 37.871094 21.167969 37.457031 21.722656 37.5 Z M 27.894531 37.664063 C 28.453125 37.675781 28.90625 38.089844 28.921875 38.640625 C 28.933594 39.191406 28.5 39.648438 27.945313 39.664063 C 27.589844 39.671875 27.234375 39.679688 26.878906 39.683594 L 26.875 39.683594 C 26.324219 39.683594 25.878906 39.238281 25.875 38.6875 C 25.871094 38.132813 26.316406 37.683594 26.871094 37.683594 C 27.207031 37.679688 27.550781 37.671875 27.894531 37.664063 Z "/>
</g>
</svg>
